<!-- Originally from Reshot (https://www.reshot.com/free-svg-icons/item/train-S42B68WCVF/), using the Reshot Free License: https://www.reshot.com/license/ -->
<svg xmlns="http://www.w3.org/2000/svg" viewBox="0 0 64 64" xml:space="preserve">
  <path fill="#000000" d="M59.224 45.086a9.274 9.274 0 0 0 1.517-1.664C62.197 41.377 63 38.645 63 35.727c0-5.467-2.908-11.35-9.294-11.35h-3.645v-6.173c1.476-.415 2.568-1.76 2.568-3.367a3.519 3.519 0 0 0-3.513-3.517h-9.52a3.52 3.52 0 0 0-3.517 3.517c0 1.606 1.092 2.95 2.569 3.366v6.174h-9.044V12.283h.206a3.52 3.52 0 0 0 3.516-3.516 3.52 3.52 0 0 0-3.516-3.514H6.13a3.518 3.518 0 0 0-3.512 3.514c0 1.589 1.065 2.92 2.513 3.354v32.96H4.28a3.3 3.3 0 0 0-2.317.962A3.3 3.3 0 0 0 1 48.36a3.288 3.288 0 0 0 3.28 3.29h5.738c1.758 4.164 5.902 7.097 10.725 7.097s8.966-2.933 10.725-7.097h10.348c.24 3.924 3.518 7.045 7.525 7.045 4.006 0 7.283-3.121 7.523-7.045h2.306c.863 0 1.687-.339 2.336-.971a3.312 3.312 0 0 0 .954-2.319 3.286 3.286 0 0 0-3.236-3.274zM61 35.726c0 2.47-.689 4.851-1.888 6.536-.8 1.124-2.187 2.436-4.406 2.746V26.45C59.02 27.052 61 31.536 61 35.727zm-22.92-20.89c0-.835.68-1.516 1.516-1.516h9.52a1.515 1.515 0 0 1 0 3.03h-9.52a1.517 1.517 0 0 1-1.517-1.513zm2.568 3.514h7.413v6.027h-7.413V18.35zM4.617 8.767c0-.835.678-1.514 1.513-1.514H29.81c.836 0 1.516.679 1.516 1.514 0 .836-.68 1.516-1.516 1.516H6.13c-.834 0-1.512-.68-1.512-1.516zm2.513 3.516h20.473v13.094a1 1 0 0 0 1 1h24.102V44.49a7.528 7.528 0 0 0-7.723.59H32.164c-1.004-5.362-5.739-9.437-11.421-9.437S10.325 39.718 9.32 45.08h-2.19V12.283zM4.28 49.65a1.287 1.287 0 0 1-.903-2.193c.24-.24.569-.377.903-.377h4.843c0 .04-.006.077-.006.116 0 .843.097 1.663.27 2.454H4.28zm16.463 7.097c-5.308 0-9.626-4.284-9.626-9.55 0-5.268 4.318-9.554 9.626-9.554s9.626 4.286 9.626 9.553c0 5.267-4.319 9.551-9.626 9.551zm11.62-9.667h10.673a7.426 7.426 0 0 0-1.08 2.57h-9.858c.174-.791.27-1.611.27-2.454 0-.039-.005-.077-.005-.116zm16.978 9.615c-2.904 0-5.289-2.224-5.525-5.045h5.144a1 1 0 1 0 0-2h-4.941a5.548 5.548 0 0 1 5.322-3.957c3.058 0 5.547 2.467 5.547 5.5 0 3.034-2.489 5.502-5.547 5.502zm10.75-7.43a1.319 1.319 0 0 1-.921.385h-2.444a7.428 7.428 0 0 0-1.082-2.57h3.526c.7 0 1.29.586 1.29 1.28 0 .34-.137.667-.368.905z"/>
  <path fill="#000000" d="M20.743 42.798c-2.437 0-4.42 1.973-4.42 4.398 0 2.423 1.983 4.395 4.42 4.395s4.418-1.972 4.418-4.395c0-2.425-1.982-4.398-4.418-4.398zm0 6.793c-1.334 0-2.42-1.074-2.42-2.395 0-1.322 1.086-2.398 2.42-2.398 1.333 0 2.418 1.076 2.418 2.398 0 1.32-1.085 2.395-2.418 2.395zM12.688 26.377h9.233a1.994 1.994 0 0 0 1.993-1.992V17.77c0-1.1-.894-1.995-1.993-1.995h-9.233a1.996 1.996 0 0 0-1.992 1.995v6.614c0 1.098.894 1.992 1.992 1.992zm.009-8.6 9.217-.006.007 6.606-9.225.008v-6.609zM44.027 31.126h4.214a1 1 0 1 0 0-2h-4.214a1 1 0 1 0 0 2zM44.027 35.485h4.214a1 1 0 1 0 0-2h-4.214a1 1 0 1 0 0 2z"/>
</svg>
